<?xml version="1.0" encoding="iso-8859-1"?>
<!-- Generator: Adobe Illustrator 18.0.0, SVG Export Plug-In . SVG Version: 6.00 Build 0)  -->
<!DOCTYPE svg PUBLIC "-//W3C//DTD SVG 1.1//EN" "http://www.w3.org/Graphics/SVG/1.1/DTD/svg11.dtd">
<svg version="1.1" id="Capa_1" xmlns="http://www.w3.org/2000/svg" xmlns:xlink="http://www.w3.org/1999/xlink" x="0px" y="0px"
	 viewBox="0 0 56.512 56.512" style="enable-background:new 0 0 56.512 56.512;" xml:space="preserve">
<g fill="#2c7ef8">
	<path d="M54.995,46.644c-3.514-5.367-8.206-8.395-13.26-8.591C41.468,38.021,41.197,38,40.922,38c-0.489,0-0.965,0.053-1.425,0.149
		c-4.597,0.592-8.832,3.552-12.068,8.494l-0.466,0.711l0.359,0.548c3.635,5.552,8.529,8.609,13.783,8.609
		c5.254,0,10.148-3.058,13.783-8.609l0.466-0.711L54.995,46.644z M45.831,44.909c0,2.707-2.202,4.909-4.909,4.909
		s-4.909-2.202-4.909-4.909c0-2.345,1.655-4.305,3.856-4.789c0.445-0.053,0.892-0.087,1.343-0.087c0.02,0,0.04,0.002,0.06,0.002
		C43.813,40.218,45.831,42.322,45.831,44.909z M41.104,54.512c-4.387,0-8.537-2.537-11.743-7.161
		c1.559-2.287,3.348-4.069,5.281-5.305c-0.4,0.874-0.629,1.842-0.629,2.864c0,3.81,3.1,6.909,6.909,6.909s6.909-3.1,6.909-6.909
		c0-1.216-0.318-2.358-0.872-3.352c2.204,1.207,4.242,3.107,5.996,5.638C49.735,51.918,45.541,54.512,41.104,54.512z"/>
	<path d="M26.158,41c-0.827,0-1.637-0.016-2.432-0.044c-0.482-0.018-0.947-0.049-1.417-0.076c-0.297-0.017-0.603-0.028-0.895-0.049
		c-0.624-0.045-1.23-0.103-1.829-0.165c-0.12-0.013-0.246-0.021-0.365-0.034c-0.686-0.075-1.354-0.161-2.005-0.256
		c-0.024-0.003-0.049-0.006-0.072-0.009c-3.379-0.499-6.279-1.26-8.548-2.165c-0.017-0.007-0.035-0.013-0.051-0.02
		c-0.414-0.167-0.803-0.338-1.174-0.514c-0.047-0.022-0.097-0.044-0.144-0.067c-0.333-0.16-0.64-0.325-0.935-0.491
		c-0.073-0.042-0.15-0.083-0.221-0.125c-0.256-0.15-0.49-0.304-0.714-0.458c-0.089-0.062-0.18-0.123-0.263-0.185
		c-0.188-0.139-0.358-0.28-0.52-0.421c-0.092-0.08-0.183-0.16-0.266-0.241c-0.132-0.128-0.249-0.257-0.358-0.386
		c-0.08-0.094-0.156-0.188-0.224-0.283c-0.087-0.121-0.161-0.242-0.227-0.363c-0.055-0.101-0.104-0.202-0.146-0.303
		c-0.048-0.119-0.086-0.238-0.114-0.356c-0.039-0.163-0.08-0.327-0.08-0.488v-8.207c0.018,0.016,0.039,0.032,0.057,0.048
		c0.232,0.205,0.47,0.409,0.738,0.605C7.725,28.791,15.253,31,26.158,31c10.88,0,18.396-2.199,22.177-5.034
		c0.29-0.212,0.55-0.431,0.799-0.653c0.008-0.007,0.017-0.014,0.024-0.021V34c0,0.553,0.448,1,1,1s1-0.447,1-1V22v-0.5v-12V9
		c0-0.182-0.062-0.343-0.146-0.49C49.855,4.22,41.236,0,26.158,0S2.461,4.22,1.304,8.51C1.22,8.657,1.158,8.818,1.158,9v0.5v12V22
		v11.5V34v12c0,0.161,0.042,0.313,0.115,0.448c1.139,4.833,10.691,7.68,19.811,8.364c0.025,0.002,0.051,0.003,0.076,0.003
		c0.519,0,0.957-0.399,0.996-0.925c0.042-0.551-0.372-1.031-0.922-1.072C10.12,51.984,3.642,48.6,3.19,45.838
		c-0.007-0.045-0.018-0.088-0.032-0.131v-8.414c0.018,0.016,0.039,0.032,0.057,0.048c0.232,0.205,0.47,0.409,0.738,0.605
		C7.725,40.791,15.253,43,26.158,43c0.552,0,1-0.447,1-1S26.71,41,26.158,41z M3.76,13.797c0.3,0.236,0.624,0.469,0.975,0.696
		c0.073,0.047,0.155,0.093,0.231,0.14c0.294,0.183,0.605,0.362,0.932,0.538c0.121,0.065,0.242,0.129,0.367,0.193
		c0.365,0.186,0.748,0.366,1.151,0.542c0.066,0.029,0.126,0.059,0.193,0.087c0.469,0.199,0.967,0.389,1.485,0.572
		c0.143,0.051,0.293,0.099,0.44,0.149c0.412,0.139,0.838,0.272,1.279,0.401c0.159,0.046,0.315,0.094,0.478,0.139
		c0.585,0.162,1.189,0.316,1.823,0.458c0.087,0.02,0.181,0.037,0.269,0.056c0.559,0.122,1.139,0.235,1.735,0.34
		c0.202,0.036,0.407,0.07,0.613,0.104c0.567,0.093,1.151,0.179,1.75,0.257c0.154,0.02,0.301,0.042,0.457,0.062
		c0.744,0.09,1.514,0.167,2.305,0.233c0.195,0.016,0.398,0.028,0.596,0.042c0.633,0.046,1.28,0.084,1.942,0.114
		c0.241,0.011,0.481,0.022,0.727,0.03c0.863,0.03,1.741,0.05,2.65,0.05s1.788-0.021,2.65-0.05c0.245-0.008,0.485-0.02,0.727-0.03
		c0.662-0.03,1.309-0.068,1.942-0.114c0.198-0.015,0.4-0.026,0.596-0.042c0.791-0.065,1.561-0.143,2.305-0.233
		c0.156-0.019,0.303-0.042,0.457-0.062c0.599-0.078,1.182-0.164,1.75-0.257c0.206-0.034,0.411-0.068,0.613-0.104
		c0.596-0.105,1.176-0.218,1.735-0.34c0.088-0.019,0.182-0.036,0.269-0.056c0.634-0.142,1.238-0.296,1.823-0.458
		c0.163-0.045,0.319-0.092,0.478-0.139c0.441-0.128,0.867-0.262,1.279-0.401c0.147-0.05,0.297-0.098,0.44-0.149
		c0.518-0.184,1.017-0.374,1.485-0.572c0.067-0.028,0.127-0.059,0.193-0.087c0.403-0.176,0.786-0.356,1.151-0.542
		c0.125-0.064,0.247-0.128,0.367-0.193c0.327-0.175,0.638-0.354,0.932-0.538c0.076-0.047,0.158-0.093,0.231-0.14
		c0.351-0.227,0.675-0.459,0.975-0.696c0.075-0.06,0.142-0.12,0.215-0.18c0.13-0.108,0.267-0.215,0.387-0.324V21.5
		c0,0.163-0.041,0.327-0.08,0.491c-0.028,0.117-0.065,0.233-0.112,0.351c-0.042,0.103-0.092,0.206-0.148,0.309
		c-0.066,0.119-0.138,0.238-0.223,0.357c-0.069,0.096-0.147,0.192-0.228,0.289c-0.108,0.127-0.223,0.254-0.353,0.38
		c-0.085,0.083-0.178,0.165-0.272,0.247c-0.16,0.139-0.327,0.278-0.513,0.415c-0.086,0.064-0.18,0.127-0.271,0.19
		c-0.222,0.153-0.453,0.305-0.706,0.453c-0.074,0.044-0.153,0.087-0.23,0.13c-0.292,0.165-0.597,0.328-0.926,0.487
		c-0.049,0.023-0.103,0.047-0.153,0.071c-0.369,0.174-0.754,0.345-1.166,0.51c-0.019,0.007-0.039,0.015-0.058,0.022
		c-2.269,0.904-5.166,1.665-8.543,2.164c-0.024,0.003-0.05,0.006-0.074,0.01c-0.651,0.095-1.318,0.181-2.003,0.256
		c-0.12,0.013-0.246,0.022-0.367,0.034c-0.599,0.062-1.204,0.12-1.827,0.165c-0.293,0.021-0.599,0.032-0.897,0.049
		c-0.469,0.027-0.934,0.059-1.416,0.076C27.796,28.984,26.985,29,26.158,29s-1.637-0.016-2.432-0.044
		c-0.482-0.018-0.947-0.049-1.417-0.076c-0.297-0.017-0.603-0.028-0.895-0.049c-0.624-0.045-1.23-0.103-1.829-0.165
		c-0.12-0.013-0.246-0.021-0.365-0.034c-0.686-0.075-1.354-0.161-2.005-0.256c-0.024-0.003-0.049-0.006-0.072-0.009
		c-3.379-0.499-6.279-1.26-8.548-2.165c-0.017-0.007-0.035-0.013-0.051-0.02c-0.414-0.167-0.803-0.338-1.174-0.514
		c-0.047-0.022-0.097-0.044-0.144-0.067c-0.333-0.16-0.64-0.325-0.935-0.491c-0.073-0.042-0.15-0.083-0.221-0.125
		c-0.256-0.15-0.49-0.304-0.714-0.458c-0.089-0.062-0.18-0.123-0.263-0.185c-0.188-0.139-0.358-0.28-0.52-0.421
		c-0.092-0.08-0.183-0.16-0.266-0.241c-0.132-0.128-0.249-0.257-0.358-0.386c-0.08-0.094-0.156-0.188-0.224-0.283
		c-0.087-0.121-0.161-0.242-0.227-0.363c-0.055-0.101-0.104-0.202-0.146-0.303c-0.048-0.119-0.086-0.238-0.114-0.356
		c-0.039-0.163-0.08-0.327-0.08-0.488v-8.207c0.12,0.109,0.257,0.216,0.387,0.324C3.617,13.677,3.684,13.737,3.76,13.797z M26.158,2
		c13.554,0,23,3.952,23,7.5s-9.446,7.5-23,7.5s-23-3.952-23-7.5S12.604,2,26.158,2z"/>
</g>
<g>
</g>
<g>
</g>
<g>
</g>
<g>
</g>
<g>
</g>
<g>
</g>
<g>
</g>
<g>
</g>
<g>
</g>
<g>
</g>
<g>
</g>
<g>
</g>
<g>
</g>
<g>
</g>
<g>
</g>
</svg>
